<svg width="125" height="6" xmlns="http://www.w3.org/2000/svg" xmlns:xlink="http://www.w3.org/1999/xlink" xmlns:svgjs="http://svgjs.com/svgjs" viewBox="0 0.431 125 5.138" fill="#feb72b"><svg xmlns="http://www.w3.org/2000/svg" width="125" height="6" viewBox="0.724 0.639 123.654 5.083"><path paint-order="stroke fill markers" fill-rule="evenodd" d="M16.677 5.025c6.81.312 13.573.541 20.363.544 3.558 0 7.146.213 10.714.135a517.542 517.542 0 0 1 20.564-.02c.965.017 1.933-.11 2.903-.128 5.748-.11 11.52-.028 17.243-.364 5.08-.299 10.19-.503 15.238-.477 4.93.026 9.794-.476 14.708-.391 1.605.027 3.23-.363 4.838-.581.606-.083 1.173-.155 1.128-.791-.037-.582-.224-1.023-1.061-1.17-.824-.143-1.705-.33-2.517-.262-5.488.463-10.989.1-16.478.208-5.658.114-11.306-.142-16.952-.265-3.537-.077-7.053-.19-10.588-.014-1.162.058-2.318-.24-3.508-.306-2.226-.123-4.471.107-6.687-.252-1.031-.166-2.1-.078-3.177.158-1.973.433-3.94-.125-5.865-.32-2.61-.264-5.124.135-7.685.128C44.079.843 38.302.872 32.523.87c-2.475 0-4.95-.026-7.425-.058-2.036-.026-4.03.446-6.074.256-3.69-.341-7.407-.048-11.102-.244-2.278-.12-4.327.492-6.417.964-.453.102-.752.352-.78.706-.026.368.323.517.739.697 2.696 1.175 5.738 1.424 8.802 1.56 2.152.095 4.266.536 6.411.275z"/></svg></svg>