<svg width="23" height="25" xmlns="http://www.w3.org/2000/svg" xmlns:xlink="http://www.w3.org/1999/xlink" xmlns:svgjs="http://svgjs.com/svgjs" viewBox="189 626 23 25"><svg width="23" height="25" xmlns="http://www.w3.org/2000/svg" xmlns:xlink="http://www.w3.org/1999/xlink" xmlns:svgjs="http://svgjs.com/svgjs" viewBox="0.025 0 22.95 25" x="189" y="626"><svg xmlns="http://www.w3.org/2000/svg" xmlns:xlink="http://www.w3.org/1999/xlink" width="23" height="25" viewBox="0.993 0.649 21.759 23.703"><path paint-order="stroke fill markers" fill-rule="evenodd" d="M22.597 6.402c.014-.301.072-.601.122-.902.14-.825-.211-1.648-.191-2.474.009-.033.008-.064.01-.097.07-.13.109-.306.108-.548-.004-.437-.176-.593-.359-.692-.09-.049-.19-.039-.279-.092-1.055-.63-2.15-.632-3.241-.624-.645.003-1.291.118-1.937.18-.095.01-.194-.033-.273.126-.139-.078-.282-.065-.427-.061-.204-.08-.405.02-.56.052l-.06-.007h-.464c-.29-.004-.583-.006-.874-.008l-1.162-.007c-.467-.007-.934-.004-1.4-.024-.662-.029-1.314-.272-1.98-.246-.416.017-.833.075-1.251.002C7.661.855 6.939.728 6.213.82L5.981.818 5.809.804C5.507.79 5.207.732 4.906.682 4.08.542 3.258.894 2.432.874c-.243-.07-.48.046-.717.143-.169.07-.224.292-.118.572.184.487.385.941.741.895.018.012.035.027.052.041-.146.112-.234.243-.212.407-.03.044-.079.088-.09.134-.12.563-.285 1.124-.341 1.689-.05.505-.229 1.133-.144 1.642-.01.364-.001.783.025.89.136.547-.058 1.076-.119 1.611-.105.92-.28 1.84-.32 2.763.077.44-.219 1.146-.08 1.678-.068.01-.076.034-.048.063.021.1-.118.207.078.297.053.032.15.053.104.108-.2.087-.228.203-.226.33.006.41-.022.824.006 1.235.015.236-.117.476.077.708-.09.083-.075.173-.072.26a.164.164 0 0 0-.004.082c-.008.135-.034.27-.02.404.096.882.3 1.762.3 2.647-.002.668.27 1.266.103 1.953-.033.482-.097.963.086 1.444.086.225.32.372.787.368.053 0 .09-.01.133-.014.02.013.04.028.06.032.562.122 1.123.285 1.688.342.506.05 1.134.229 1.642.144v-.001c.365.01.784.002.89-.025.548-.136 1.077.057 1.612.119.92.106 1.839.28 2.762.32.44-.076 1.146.219 1.677.08.012.068.035.077.064.048.1-.02.208.118.297-.078.032-.053.054-.149.108-.104.087.2.203.228.33.227.411-.006.824.022 1.235-.006.237-.015.476.117.709-.078.083.09.172.075.26.073.025.007.051.01.08.004.136.007.27.033.405.019.882-.096 1.762-.3 2.647-.3.668.003 1.267-.27 1.954-.103.482.033.963.097 1.443-.086.225-.086.373-.319.37-.787-.004-.436-.176-.593-.359-.693-.09-.049-.19-.039-.279-.092a.415.415 0 0 1-.027-.014c.449-.95.454-1.928.448-2.905-.004-.645-.12-1.29-.181-1.936-.01-.096.034-.195-.127-.273.08-.14.067-.283.062-.427.081-.204-.02-.406-.053-.56l.009-.06v-.464c.002-.291.004-.583.008-.874l.006-1.163c.008-.466.005-.932.024-1.399.028-.662.273-1.314.246-1.981-.016-.415-.074-.832-.002-1.251.125-.718.251-1.44.159-2.165l.004-.233c.004-.057.01-.114.013-.172zm-3.83 15.253c-.645.004-1.291.12-1.937.182-.095.009-.194-.034-.273.127-.139-.08-.282-.068-.427-.063-.204-.082-.405.02-.56.052a1.149 1.149 0 0 1-.06-.008h-.464l-.874-.007-1.162-.007c-.467-.007-.934-.004-1.4-.024-.662-.028-1.314-.272-1.98-.246-.416.017-.833.074-1.251.002-.718-.125-1.44-.252-2.166-.16l-.232-.002-.172-.015c-.302-.013-.602-.071-.903-.122-.46-.076-.917-.003-1.376.075.162-.686.164-1.383.16-2.079-.005-.645-.12-1.29-.182-1.936-.01-.096.034-.195-.127-.273.08-.14.067-.283.063-.427.08-.204-.02-.406-.053-.56l.008-.06v-.464l.008-.874.006-1.163c.008-.466.004-.932.025-1.399.028-.662.272-1.314.245-1.981-.016-.415-.074-.832-.002-1.251.126-.718.252-1.44.16-2.165l.003-.233.013-.172c.014-.301.072-.601.123-.902.138-.825-.212-1.648-.192-2.474a.553.553 0 0 0 .018-.162c.118.02.237.038.355.05.506.05 1.134.23 1.642.144.365.01.784.002.89-.024.548-.136 1.077.057 1.612.118.92.106 1.839.28 2.762.32.44-.076 1.146.22 1.677.081.012.067.035.076.064.048.1-.021.208.117.297-.079v.001c.032-.053.054-.149.108-.104.087.2.203.227.33.226.411-.005.824.022 1.235-.005.237-.016.476.116.709-.079.083.09.172.076.26.073.025.007.051.01.08.004.136.008.27.034.405.02.882-.096 1.762-.3 2.647-.3.654.001 1.24-.256 1.908-.111-.116.502-.25 1.004-.3 1.508-.051.505-.23 1.133-.144 1.642-.01.364 0 .783.025.89.136.547-.058 1.076-.119 1.611-.106.92-.28 1.84-.319 2.763.075.44-.22 1.146-.082 1.678-.067.01-.075.034-.047.063.02.1-.118.207.078.297.053.032.149.053.104.108-.2.087-.229.203-.227.33.006.41-.022.824.006 1.235.015.236-.116.476.077.708-.089.083-.074.173-.072.26a.182.182 0 0 0-.004.082c-.008.135-.033.27-.019.404.095.882.301 1.762.3 2.647-.002.668.27 1.266.103 1.953l-.02.273a12.797 12.797 0 0 0-1.36-.044zM1.763 14.062l-.009.003c0-.004-.003-.006-.003-.01l.012.007zm11.7 9.53c0-.003.003-.006.006-.011l.003.01-.01.002zm.006-20.694l.003.01-.01.002c.001-.005.004-.008.007-.012zm7.034 11.164l-.009.003c0-.004-.003-.006-.003-.01l.012.007z"/></svg></svg><svg width="17" height="16" xmlns="http://www.w3.org/2000/svg" xmlns:xlink="http://www.w3.org/1999/xlink" xmlns:svgjs="http://svgjs.com/svgjs" viewBox="0 0.145 17 15.71" x="193" y="631"><svg xmlns="http://www.w3.org/2000/svg" width="17" height="16" viewBox="0.281 0.265 16 14.786"><path paint-order="stroke fill markers" fill-rule="evenodd" d="M15.49.306a6.842 6.842 0 0 0-2.034.93c-1.727 1.432-3.174 3.18-5.058 4.44-.525.35-.887.368-1.257-.113A43.973 43.973 0 0 0 2.69.966a1.515 1.515 0 0 0-1.115-.45C.691.508.476.75.676 1.572c.061.203.166.39.305.548.813 1 1.65 1.98 2.454 2.987.644.809 1.218 1.676 1.895 2.454.264.3.3.426.025.707-1.173 1.204-2.35 2.405-3.48 3.65a6.803 6.803 0 0 0-1.523 2.168c-.159.435-.07.903.465.925 1.168.05 2.356.02 2.833-1.385.057-.17.215-.163.314-.255 1.11-1.01 2.29-1.942 3.326-3.034.153-.161.347-.394.596-.15.635.624 1.405 1.076 2.089 1.637 1.215 1 2.527 1.877 3.668 2.97a1.39 1.39 0 0 0 1.747-.115c.41-.455.05-.868-.206-1.197a7.213 7.213 0 0 0-2.066-2.093 15.902 15.902 0 0 1-1.775-1.239A6.568 6.568 0 0 1 9.83 8.43a.509.509 0 0 1 .15-.69c1.576-1.043 2.844-2.434 4.221-3.7a7.98 7.98 0 0 0 1.955-2.475c.174-.34.166-.745-.023-1.077a.536.536 0 0 0-.643-.182z"/></svg></svg></svg>