<svg width="182" height="8" xmlns="http://www.w3.org/2000/svg" xmlns:xlink="http://www.w3.org/1999/xlink" xmlns:svgjs="http://svgjs.com/svgjs" viewBox="0 0.344 182 7.311" fill="#feb72b"><svg xmlns="http://www.w3.org/2000/svg" width="182" height="8" viewBox="0.706 0.358 181.294 7.283"><path paint-order="stroke fill markers" fill-rule="evenodd" d="M24.095 6.643c9.983.448 19.899.776 29.855.78 5.216 0 10.476.305 15.707.194 10.052-.217 20.099-.203 30.15-.03 1.415.025 2.834-.156 4.256-.183 8.429-.158 16.892-.04 25.28-.521 7.448-.429 14.941-.721 22.343-.684 7.226.038 14.358-.682 21.562-.56 2.354.038 4.736-.52 7.094-.833.889-.118 1.72-.221 1.654-1.133-.055-.833-.328-1.466-1.556-1.676-1.208-.205-2.5-.473-3.69-.376-8.045.663-16.111.143-24.159.299-8.295.162-16.576-.205-24.854-.38-5.186-.111-10.34-.274-15.523-.02-1.703.083-3.4-.346-5.144-.439-3.263-.176-6.555.153-9.803-.36-1.513-.24-3.08-.113-4.658.226-2.893.62-5.777-.18-8.6-.459-3.825-.378-7.512.193-11.267.184C64.27.65 55.8.692 47.327.689A893.32 893.32 0 0 1 36.441.605c-2.985-.036-5.91.639-8.906.367-5.408-.489-10.859-.07-16.277-.35-3.338-.17-6.344.705-9.408 1.382-.663.146-1.102.504-1.142 1.012-.039.527.473.74 1.083.999 3.951 1.683 8.412 2.04 12.904 2.234 3.155.137 6.254.768 9.4.394z"/></svg></svg>