<svg width="96" height="6" xmlns="http://www.w3.org/2000/svg" xmlns:xlink="http://www.w3.org/1999/xlink" xmlns:svgjs="http://svgjs.com/svgjs" viewBox="0 0.478 96 5.044" fill="#feb72b"><svg xmlns="http://www.w3.org/2000/svg" width="96" height="6" viewBox="0.333 1 95.164 5"><path paint-order="stroke fill markers" fill-rule="evenodd" d="M12.61 5.314c5.24.308 10.445.533 15.671.535 2.739.001 5.5.21 8.245.134 5.277-.149 10.55-.14 15.827-.02.743.017 1.487-.108 2.234-.126 4.424-.109 8.866-.027 13.27-.358 3.91-.294 7.842-.495 11.728-.47 3.793.027 7.536-.468 11.318-.384 1.236.027 2.486-.357 3.724-.572.467-.081.902-.152.868-.778-.028-.572-.172-1.006-.817-1.15-.634-.14-1.312-.325-1.936-.258-4.224.455-8.458.098-12.682.204-4.354.112-8.701-.14-13.046-.26-2.723-.076-5.429-.188-8.149-.014-.894.057-1.783-.237-2.7-.3-1.713-.122-3.44.104-5.146-.249-.794-.163-1.616-.077-2.445.156-1.518.426-3.032-.124-4.514-.315-2.007-.26-3.943.132-5.914.126-4.447-.015-8.893.014-13.34.011-1.906 0-3.81-.026-5.715-.057-1.568-.025-3.102.439-4.675.252-2.84-.336-5.7-.048-8.544-.24-1.753-.118-3.33.484-4.939.949-.348.1-.578.346-.599.694-.02.362.249.509.568.686 2.075 1.156 4.416 1.4 6.774 1.534 1.656.094 3.283.527 4.934.27z"/></svg></svg>