<svg width="25" height="22" xmlns="http://www.w3.org/2000/svg" xmlns:xlink="http://www.w3.org/1999/xlink" xmlns:svgjs="http://svgjs.com/svgjs" viewBox="0 0.153 25 21.694"><svg xmlns="http://www.w3.org/2000/svg" width="25" height="22" viewBox="0.371 0.252 24.628 21.371"><path paint-order="stroke fill markers" fill-rule="evenodd" d="M2.658.315c-.45.073-.711.26-.817.63-.226.784-.021 1.487.535 2.128 1.153 1.33 2.963 2.1 4.577 2.958a212.536 212.536 0 0 0 8.183 4.133c.832.398 1.594.874 2.245 1.466.235.214.167.436-.157.556-.531.198-1.064.398-1.61.56-1.876.552-3.76 1.085-5.638 1.633-1.155.338-2.304.688-3.454 1.034-.144.043-.287.09-.426.144-1.386.54-2.786 1.056-4.15 1.634-.558.237-1.18.435-1.573.893-.039.893.595 1.576.932 2.342.136.309.37.795.663 1.021.382.294.729.155 1.204.049.99-.223 1.964-.491 2.948-.732 2.224-.545 4.322-1.5 6.508-2.155 2.052-.616 4.105-1.23 6.148-1.867 1.032-.32 2.06-.649 3.087-.984.927-.302 2.04-.458 2.784-1.061.456-.37.47-.591.043-.987-1.156-1.072-2.314-2.144-3.604-3.104-.574-.426-1.174-.825-1.739-1.26-1.429-1.098-2.883-2.171-4.425-3.157-1.76-1.125-3.498-2.275-5.27-3.386C8.397 2.018 7.137 1.233 5.693.7 4.72.34 3.729.143 2.658.315z"/></svg></svg>