<svg width="31" height="16" xmlns="http://www.w3.org/2000/svg" xmlns:xlink="http://www.w3.org/1999/xlink" xmlns:svgjs="http://svgjs.com/svgjs" viewBox="173 1082 31 16"><svg width="31" height="16" xmlns="http://www.w3.org/2000/svg" xmlns:xlink="http://www.w3.org/1999/xlink" xmlns:svgjs="http://svgjs.com/svgjs" viewBox="173 1082 31 16" x="173" y="1082"><svg width="31" height="16" xmlns="http://www.w3.org/2000/svg" xmlns:xlink="http://www.w3.org/1999/xlink" xmlns:svgjs="http://svgjs.com/svgjs" viewBox="0 0.065 31 15.871" fill="#070606" x="173" y="1082"><svg xmlns="http://www.w3.org/2000/svg" xmlns:xlink="http://www.w3.org/1999/xlink" width="31" height="16" viewBox="0.382 0.635 30 15.359"><path paint-order="stroke fill markers" fill-rule="evenodd" d="M2.47 15.221c.045-.135 1.172-1.251 1.237-1.375.306-.363.728-.705 1.14-1.13a.943.943 0 0 0 .27-.218c.072-.108.234-.201.368-.318.258-.132.42-.283.642-.508.68-.694 1.444-1.251 2.078-1.99.102-.118.198-.246.325-.335.083-.059.117-.09.238.02.883.808 1.683 1.723 2.613 2.47l1.5 1.318c.535.433 1.163.685 1.695 1.101.646.506 1.516.561 2.14.009.229-.204.453-.419.699-.595l2.431-2c.586-.406 2.808-2.57 3.278-1.773.01.015 2.282 1.912 3.62 3.085l1.91 1.7c.834.667 1.745.443 1.482-.68-.033-.141-.11-.393-.23-.492a26.92 26.92 0 0 0-.877-.7c-1.501-1.138-2.849-2.488-4.197-3.836-.345-.345-.292-.72.104-1.02.385-.295.764-.598 1.18-.842.698-.41 1.28-1.026 1.991-1.416.6-.33 1.093-.809 1.534-1.36.051-.063.068-.156.18-.134.454.094.509-.283.537-.626.04-.492.035-.987-.054-1.48-.117-.651-.403-.82-.938-.537-1.153.61-2.132 1.5-3.082 2.424-1.044 1.013-2.158 1.922-3.248 2.869-.112.097-.215.184-.352.047-.583-.579-1.274-.985-1.905-1.49-1.045-.836-2.118-1.63-3.16-2.471-.536-.433-1.163-.685-1.695-1.1-.646-.507-1.517-.562-2.14-.01-.23.205-.453.42-.699.596a9.96 9.96 0 0 0-1.6 1.415c-.406.448-.771.952-1.29 1.274-.431.269-.796.658-1.217.958-.15.108-.179.082-.283.005-.235-.172-.409-.437-.68-.551-.241-.305-.403-.558-.904-.854-.167-.215-.384-.436-.564-.48-.252-.08-.586-.532-1.057-.82a11.767 11.767 0 0 1-2.407-1.757c-.529-.5-1.052-1.076-1.868-.965C.92.689.742.855.602 1.08c-.14.226.08.398.185.541.297.404.672.721 1.031 1.056.759.708 1.675 1.172 2.388 1.948.062.108.118.223.228.284.591.433.943 1.198 1.645 1.478.084.538.605.61.854.992.255.393.29.481-.141.629-.09.03-.12.1-.163.147-.357.382-.748.7-1.21.906l-.807.807c-.104.045-.147.156-.229.236-.294.282-.762.715-.864.817-.56.568-1.17 1.073-1.658 1.729-.128.173-.167.412-.302.546-.377.374-.735.766-1.093 1.162-.363.402.55 1.395.861 1.594.312.2.803-.365 1.144-.73zm7.877-6.79c-.224-.258.106-.808.11-.81.411-.26 1.505-1.62 1.568-1.67 1.924-1.536 2.206-3.65 4.565-1.538.705.632 3.687 2.931 4.478 3.69.273.26.129.374-.108.486-.085.065-.2.157-.3.208-.311.162-.679.432-1.041.706-.537.535-3.402 2.859-3.739 2.984-.94.35-4.878-3.301-5.533-4.056z"/></svg></svg><svg width="8" height="7" xmlns="http://www.w3.org/2000/svg" xmlns:xlink="http://www.w3.org/1999/xlink" xmlns:svgjs="http://svgjs.com/svgjs" viewBox="0.184 0 7.632 7" fill="#070606" x="185" y="1086"><svg xmlns="http://www.w3.org/2000/svg" width="8" height="7" viewBox="0.212 0.568 6.931 6.357"><path paint-order="stroke fill markers" fill-rule="evenodd" d="M5.228 5.882c1.278-1.136 2.18-1.86 1.845-2.142C5.888 2.713 4.553 1.572 3.39.674 2.416-.078.275 3.434.213 3.669c-.065.252 1.958 2.244 2.244 2.456.701.52.718.878 1.358.786.467-.066.982-.536 1.413-1.029zM2.35 4.486c-1.306-.826-.333-1.122.457-1.588.658-.387.44-.672 1.092-.21.485.342 1.096 1.007 1.405 1.142.286.125-.552.87-.757 1.021-1.631 1.203-.66.608-2.197-.365z"/></svg></svg></svg></svg>