<svg width="23" height="25" xmlns="http://www.w3.org/2000/svg" xmlns:xlink="http://www.w3.org/1999/xlink" xmlns:svgjs="http://svgjs.com/svgjs" viewBox="152 626 23 25"><svg width="23" height="25" xmlns="http://www.w3.org/2000/svg" xmlns:xlink="http://www.w3.org/1999/xlink" xmlns:svgjs="http://svgjs.com/svgjs" viewBox="0.024 0 22.951 25" x="152" y="626"><svg xmlns="http://www.w3.org/2000/svg" xmlns:xlink="http://www.w3.org/1999/xlink" width="23" height="25" viewBox="0.247 0.648 21.76 23.702"><path paint-order="stroke fill markers" fill-rule="evenodd" d="M21.852 6.402c.013-.303.072-.602.122-.904.14-.825-.21-1.647-.191-2.473.009-.032.008-.065.01-.098.07-.129.109-.304.108-.547-.004-.436-.176-.593-.359-.692-.09-.05-.19-.04-.28-.092-1.055-.629-2.149-.632-3.24-.625-.645.004-1.291.119-1.937.182-.096.01-.195-.035-.273.126-.139-.08-.282-.067-.427-.062-.204-.08-.405.02-.56.053l-.06-.008h-.464l-.874-.009-1.162-.006c-.467-.007-.934-.004-1.4-.024-.662-.028-1.314-.272-1.98-.245-.416.016-.833.073-1.25.001C6.914.854 6.193.727 5.467.82L5.235.818 5.064.803C4.762.79 4.462.731 4.16.681 3.336.542 2.513.893 1.687.873c-.244-.07-.48.045-.717.143-.17.07-.225.292-.118.572.183.487.384.941.74.895.018.012.035.027.053.04-.146.113-.234.244-.212.408-.031.044-.08.088-.09.134-.122.562-.285 1.124-.342 1.688-.05.506-.228 1.134-.143 1.643-.01.364-.001.783.025.89.136.547-.057 1.076-.12 1.612-.105.92-.279 1.838-.319 2.762.076.44-.22 1.146-.08 1.677-.068.012-.077.035-.048.064.02.1-.117.208.078.297H.393c.054.032.15.053.104.108-.2.087-.227.203-.225.33.005.411-.023.824.005 1.235.015.236-.117.476.078.709-.09.082-.076.171-.073.26a.172.172 0 0 0-.004.08c-.007.136-.033.27-.019.405.096.883.301 1.761.299 2.647-.001.668.271 1.266.104 1.953-.033.482-.097.963.086 1.444.086.225.319.372.787.369.053 0 .09-.01.133-.015.02.014.04.027.059.031.563.122 1.124.286 1.688.343.506.05 1.134.228 1.643.144.365.01.783 0 .89-.026.547-.135 1.077.058 1.612.12.92.105 1.839.28 2.761.318.44-.075 1.147.22 1.678.082.012.067.034.076.064.047.1-.02.208.117.297-.078v.002c.032-.054.053-.15.108-.106.087.201.203.228.33.227.411-.006.824.022 1.235-.006.237-.015.476.117.708-.078.083.09.173.075.262.073a.17.17 0 0 0 .08.004c.135.008.27.034.404.018.882-.095 1.762-.3 2.647-.298.668.001 1.267-.271 1.954-.103.482.032.963.096 1.443-.087.225-.086.372-.319.37-.787-.004-.437-.176-.593-.359-.693-.09-.048-.19-.038-.28-.092l-.026-.014c.449-.951.454-1.929.448-2.905-.004-.645-.12-1.291-.181-1.937-.01-.095.034-.194-.127-.272.08-.14.067-.283.062-.427.081-.204-.02-.405-.053-.56l.009-.06v-.464c.002-.291.004-.583.008-.874l.005-1.162c.009-.467.005-.935.025-1.4.028-.662.273-1.314.246-1.982-.016-.415-.074-.832-.002-1.25.125-.719.25-1.44.159-2.165l.004-.233.013-.171zm-3.83 15.252c-.645.004-1.291.119-1.937.181-.096.01-.195-.033-.273.126-.139-.078-.282-.065-.427-.061-.204-.081-.405.02-.56.052l-.06-.007-.464-.001-.874-.007-1.162-.007c-.467-.008-.934-.004-1.4-.024-.662-.029-1.314-.272-1.98-.246-.416.017-.833.074-1.25.002-.72-.126-1.441-.252-2.167-.16-.077 0-.155 0-.233-.002l-.171-.014c-.302-.014-.602-.071-.904-.122-.459-.077-.917-.003-1.376.075.163-.688.165-1.384.16-2.08-.004-.645-.119-1.291-.181-1.937-.01-.095.034-.194-.127-.272.08-.14.066-.283.062-.427.081-.204-.02-.405-.052-.56l.008-.06v-.464l.007-.874.007-1.162c.007-.467.004-.935.024-1.4.028-.662.272-1.314.246-1.982-.016-.415-.074-.832-.002-1.25.126-.719.252-1.44.16-2.165l.003-.233.013-.171c.014-.303.072-.602.122-.904.14-.825-.211-1.647-.192-2.473a.516.516 0 0 0 .019-.162c.118.02.237.039.354.051.506.05 1.134.229 1.643.144.365.009.783 0 .89-.026.547-.135 1.077.057 1.612.119.92.106 1.839.28 2.761.32.44-.075 1.147.219 1.678.081.012.067.034.076.064.047.1-.02.208.118.297-.077.032-.053.053-.149.108-.104.087.2.203.228.33.226.411-.006.824.022 1.235-.006.237-.015.476.117.708-.077.083.09.173.075.262.072.024.007.05.011.08.004.135.008.27.033.404.02.882-.096 1.762-.301 2.647-.3.653.002 1.24-.256 1.908-.111-.116.502-.25 1.003-.3 1.507-.051.506-.23 1.134-.144 1.643-.01.364-.001.783.025.89.136.547-.058 1.076-.119 1.612-.106.92-.28 1.838-.32 2.762.076.44-.219 1.146-.08 1.677-.068.012-.076.035-.048.064.02.1-.118.208.078.297.053.032.148.053.103.108-.2.087-.228.203-.226.33.006.411-.022.824.006 1.235.016.236-.116.476.077.709-.089.082-.074.171-.072.26a.172.172 0 0 0-.003.08c-.009.136-.034.27-.02.405.095.883.301 1.761.3 2.647-.002.668.27 1.266.103 1.953l-.02.273a12.743 12.743 0 0 0-1.36-.044zM1.017 14.061l-.01.003-.002-.01.012.007zm11.699 9.53c0-.005.004-.007.007-.01l.002.008-.009.003zm.007-20.693l.002.009-.009.002c0-.004.004-.007.007-.011zm7.034 11.163l-.01.003-.002-.01.012.007z"/></svg></svg><svg width="18" height="15" xmlns="http://www.w3.org/2000/svg" xmlns:xlink="http://www.w3.org/1999/xlink" xmlns:svgjs="http://svgjs.com/svgjs" viewBox="0.291 0 17.417 15" x="155" y="632"><svg xmlns="http://www.w3.org/2000/svg" width="18" height="15" viewBox="0.341 0 17.412 14.995"><path paint-order="stroke fill markers" fill-rule="evenodd" d="M17.396.112c-.443-.117-.873-.205-1.022.074-.045.017-.102.023-.133.05-.376.343-.78.663-1.11 1.04-.295.337-.746.697-.945 1.106-.193.257-.401.563-.437.653-.183.462-.593.744-.91 1.097-.548.608-1.143 1.178-1.645 1.822-.17.354-.745.711-.918 1.164-.052-.027-.071-.015-.066.021-.036.082-.19.09-.096.253.021.05.08.114.02.132-.19-.041-.268.028-.332.12-.207.3-.438.581-.628.891-.11.178-.328.282-.308.548-.107.014-.142.086-.185.152a.143.143 0 0 0-.045.055c-.074.093-.162.176-.22.28-.383.683-.687 1.421-1.14 2.055-.28.392-.41.842-.701 1.216a4.556 4.556 0 0 0-.92-.807l-.165-.118a.66.66 0 0 0-.135-.09l-.009-.007a.707.707 0 0 0-.247-.196l-.025-.024-.077-.068-.113-.103-.123-.111-.318-.286-.12-.109c-.082-.075-.165-.15-.245-.228-.053-.051-.107-.121-.165-.196a2.167 2.167 0 0 0-.444-.458 1.13 1.13 0 0 1-.177-.157c-.173-.217-.366-.46-.631-.65l-.028-.026-.008-.007-.024-.026c-.059-.057-.107-.118-.159-.182L2.41 8.95c-.16-.2-.355-.322-.527-.43-.083-.05-.16-.1-.22-.15a.863.863 0 0 0-.411-.256.629.629 0 0 0-.21-.039c-.261 0-.49.17-.594.445-.058.148-.212.55.005.851.014.03.032.063.056.095l.097.137c.096.136.194.276.318.411.031.035.063.075.096.116a1.9 1.9 0 0 0 .373.378c.22.201.301.244.33.259.036.02.092.092.146.162.041.053.084.108.129.157.073.083.144.167.216.251.152.18.31.364.489.537l.036.037.044.027a.806.806 0 0 0 .065.082c.059.073.132.164.227.246l.112.202.098.002a.634.634 0 0 0 .074.075l.116.105c.075.07.15.136.229.2a.8.8 0 0 0 .206.178l.03.03a.525.525 0 0 0 .038.037l.004.004c.031.034.08.087.15.136.096.07.197.136.298.2.169.11.329.215.46.332.1.09.2.153.287.209.101.064.165.106.198.154l.023.033.03.03.039.04c.067.07.144.15.238.223.054.121.16.247.344.375.315.222.516.179.68.098.082-.04.126-.117.21-.154.992-.436 1.555-1.222 2.109-2.01.328-.465.575-.988.86-1.483.043-.075.125-.123.05-.261.129-.06.193-.17.263-.277.163-.104.193-.3.248-.428l.037-.04c.08-.11.159-.222.24-.332.15-.208.3-.417.451-.624l.6-.832c.245-.332.481-.67.734-.995.36-.46.868-.804 1.19-1.297.202-.307.375-.636.64-.9.458-.452.918-.905 1.223-1.474l.122-.166.098-.116c.165-.21.36-.396.55-.587.522-.52.692-1.291 1.129-1.875.174-.14.213-.37.264-.59.037-.157-.095-.31-.35-.377zM10.368 7.97l.004-.008.005.011-.01-.003z"/></svg></svg></svg>